{"title":"Band Baaja Baraat 720p x264 Dvdrip Ratzz","uid":7029644,"size":735396573,"categoryP":"video","categoryS":"hd___movies","magnet":"?xt=urn:btih:fe9839837fd3845af13932748ba2c699f45e2e30&amp;dn=Band+Baaja+Baraat+720p+x264+Dvdrip+Ratzz&amp;tr=udp%3A%2F%2Ftracker.openbittorrent.com%3A80&amp;tr=udp%3A%2F%2Fopen.demonii.com%3A1337&amp;tr=udp%3A%2F%2Ftracker.coppersurfer.tk%3A6969&amp;tr=udp%3A%2F%2Fexodus.desync.com%3A6969","seeders":0,"leechers":1,"uploader":"afterratzz","files":-1,"time":1329185639,"description":"source : xrg thanks\n\nGeneral\n\nFormat : MPEG-4\nFormat profile : Base Media\nCodec ID : isom\nFile size : 701 MiB\nDuration : 2h 23mn\nOverall bit rate : 685 Kbps\nEncoded date : UTC 2012-02-13 18:55:29\nTagged date : UTC 2012-02-13 18:55:29\n\nVideo\nID : 1\nFormat : AVC\nFormat/Info : Advanced Video Codec\nFormat profile : &lt;a class=&quot;__cf_email__&quot; href=&quot;/cdn-cgi/l/email-protection&quot; data-cfemail=&quot;c18ca0a8af818df2eff0&quot;&gt;[email&amp;#160;protected]&lt;/a&gt;&lt;script cf-hash='f9e31' type=&quot;text/javascript&quot;&gt;\n/* &lt;![CDATA[ */!function(){try{var t=&quot;currentScript&quot;in document?document.currentScript:function(){for(var t=document.getElementsByTagName(&quot;script&quot;),e=t.length;e--;)if(t[e].getAttribute(&quot;cf-hash&quot;))return t[e]}();if(t&amp;&amp;t.previousSibling){var e,r,n,i,c=t.previousSibling,a=c.getAttribute(&quot;data-cfemail&quot;);if(a){for(e=&quot;&quot;,r=parseInt(a.substr(0,2),16),n=2;a.length-n;n+=2)i=parseInt(a.substr(n,2),16)^r,e+=String.fromCharCode(i);e=document.createTextNode(e),c.parentNode.replaceChild(e,c)}}}catch(u){}}();/* ]]&gt; */&lt;/script&gt;\nFormat settings, CABAC : Yes\nFormat settings, ReFrames : 3 frames\nCodec ID : avc1\nCodec ID/Info : Advanced Video Coding\nDuration : 2h 19mn\nBit rate mode : Variable\nBit rate : 635 Kbps\nMaximum bit rate : 14.0 Mbps\nWidth : 1 280 pixels\nHeight : 544 pixels\nDisplay aspect ratio : 2.35:1\nFrame rate mode : Constant\nFrame rate : 23.976 fps\nColor space : YUV\nChroma subsampling : 4:2:0\nBit depth : 8 bits\nScan type : Progressive\nBits/(Pixel*Frame) : 0.038\nStream size : 633 MiB (90%)\nTitle : Band Baaja Baaraat\nWriting library : x264 core 120 r2120 0c7dab9\nEncoding settings : cabac=1 / ref=3 / deblock=1:0:0 / analyse=0x1:0x111 / me=hex / subme=7 / psy=1 / psy_rd=1.00:0.00 / mixed_ref=1 / me_range=16 / chroma_me=1 / trellis=1 / 8x8dct=0 / cqm=0 / deadzone=21,11 / fast_pskip=1 / chroma_qp_offset=-2 / threads=12 / sliced_threads=0 / nr=0 / decimate=1 / interlaced=0 / bluray_compat=0 / constrained_intra=0 / bframes=3 / b_pyramid=0 / b_adapt=1 / b_bias=0 / direct=1 / weightb=1 / open_gop=0 / weightp=2 / keyint=240 / keyint_min=24 / scenecut=40 / intra_refresh=0 / rc_lookahead=40 / rc=2pass / mbtree=1 / bitrate=635 / ratetol=1.0 / qcomp=0.60 / qpmin=0 / qpmax=69 / qpstep=4 / cplxblur=20.0 / qblur=0.5 / vbv_maxrate=14000 / vbv_bufsize=14000 / nal_hrd=vbr / ip_ratio=1.40 / aq=1:1.00\nEncoded date : UTC 2012-02-13 18:55:29\nTagged date : UTC 2012-02-13 18:56:02\n\nAudio\nID : 2\nFormat : AAC\nFormat/Info : Advanced Audio Codec\nFormat profile : HE-AAC / LC\nCodec ID : 40\nDuration : 2h 23mn\nBit rate mode : Variable\nBit rate : 64.0 Kbps\nMaximum bit rate : 71.2 Kbps\nChannel(s) : 2 channels\nChannel positions : Front: L R\nSampling rate : 48.0 KHz / 24.0 KHz\nCompression mode : Lossy\nStream size : 65.6 MiB (9%)\nTitle : Ratzz audio\nLanguage : Hindi\nEncoded date : UTC 2012-02-13 18:55:57\nTagged date : UTC 2012-02-13 18:56:02","torrent":{"xt":"urn:btih:fe9839837fd3845af13932748ba2c699f45e2e30","amp;dn":"Band+Baaja+Baraat+720p+x264+Dvdrip+Ratzz","amp;tr":["udp%3A%2F%2Ftracker.openbittorrent.com%3A80","udp%3A%2F%2Fopen.demonii.com%3A1337","udp%3A%2F%2Ftracker.coppersurfer.tk%3A6969","udp%3A%2F%2Fexodus.desync.com%3A6969"],"infoHash":"fe9839837fd3845af13932748ba2c699f45e2e30","infoHashBuffer":{"type":"Buffer","data":[254,152,57,131,127,211,132,90,241,57,50,116,139,162,198,153,244,94,46,48]},"announce":[],"urlList":[]}}